<?xml version="1.0" encoding="iso-8859-1"?>
<!-- Generator: Adobe Illustrator 19.0.0, SVG Export Plug-In . SVG Version: 6.00 Build 0)  -->
<svg version="1.1" id="Layer_1" xmlns="http://www.w3.org/2000/svg" xmlns:xlink="http://www.w3.org/1999/xlink" x="0px" y="0px"
	 viewBox="0 0 469.333 469.333" style="enable-background:new 0 0 469.333 469.333;" xml:space="preserve">
<g>
	<g>
		<g>
			<path d="M469.224,160c-0.001-1.628-0.263-3.27-1.016-4.771l-41.542-83.083V42.667C426.667,19.135,407.531,0,384,0H85.333
				C61.802,0,42.667,19.135,42.667,42.667v29.522C28.15,101.822,5.522,147.645,2.073,153.677C0.771,155.448,0,157.635,0,160
				c0,29.672,17.533,55.145,42.667,67.177v199.49c0,23.531,19.135,42.667,42.667,42.667H384c23.531,0,42.667-19.135,42.667-42.667
				v-199.49c24.94-11.94,42.335-37.128,42.599-66.508c0.006-0.111,0.029-0.211,0.033-0.322c0-0.118,0.035-0.229,0.035-0.348H469.224
				z M441.406,149.333h-84.809l-12.898-64h65.707L441.406,149.333z M64,42.667c0-11.76,9.573-21.333,21.333-21.333H384
				c11.76,0,21.333,9.573,21.333,21.333V64H64V42.667z M337.198,170.667v30.449c-8.092,20.098-27.62,33.551-49.198,33.551
				c-16.971,0-32.602-8.241-42.667-21.849v-42.151H337.198z M245.333,149.333v-64h76.622l13.065,64H245.333z M134.501,149.333
				l12.898-64H224v64H134.501z M224,170.667v42.151c-10.065,13.608-25.695,21.849-42.667,21.849
				c-21.587,0-41.125-13.465-49.21-33.576l-0.154-30.424H224z M59.99,85.333h65.677l-12.741,64H28.229
				C34.76,136.802,44.531,116.906,59.99,85.333z M22.413,170.667h88.389v27.969c-9.952,9.365-22.556,14.698-36.135,14.698
				C48.913,213.333,27.369,194.98,22.413,170.667z M341.333,448H256V298.667h85.333V448z M405.333,426.667
				c0,11.76-9.573,21.333-21.333,21.333h-21.333V288c0-5.896-4.771-10.667-10.667-10.667H245.333
				c-5.896,0-10.667,4.771-10.667,10.667v160H85.333C73.573,448,64,438.427,64,426.667V233.589
				c3.514,0.509,7.014,1.078,10.667,1.078c15.823,0,30.813-4.917,43.406-14.063C131.51,242.24,155.396,256,181.333,256
				c20.302,0,39.417-8.208,53.333-22.458C248.583,247.792,267.698,256,288,256c25.938,0,49.823-13.76,63.26-35.396
				c12.594,9.146,27.583,14.063,43.406,14.063c3.652,0,7.152-0.569,10.667-1.078V426.667z M394.667,213.333
				c-13.589,0-26.203-5.339-36.158-14.716l-0.128-27.951h88.539C441.965,194.98,420.421,213.333,394.667,213.333z"/>
			<path d="M202.667,277.333h-85.333c-5.896,0-10.667,4.771-10.667,10.667v85.333c0,5.896,4.771,10.667,10.667,10.667h85.333
				c5.896,0,10.667-4.771,10.667-10.667V288C213.333,282.104,208.562,277.333,202.667,277.333z M192,362.667h-64v-64h64V362.667z"/>
		</g>
	</g>
</g>
<g>
</g>
<g>
</g>
<g>
</g>
<g>
</g>
<g>
</g>
<g>
</g>
<g>
</g>
<g>
</g>
<g>
</g>
<g>
</g>
<g>
</g>
<g>
</g>
<g>
</g>
<g>
</g>
<g>
</g>
</svg>
